<?xml version="1.0" standalone="no"?>
<!DOCTYPE svg PUBLIC "-//W3C//DTD SVG 20010904//EN"
 "http://www.w3.org/TR/2001/REC-SVG-20010904/DTD/svg10.dtd">
<svg version="1.0" xmlns="http://www.w3.org/2000/svg"
 width="231.000000pt" height="231.000000pt" viewBox="0 0 231.000000 231.000000"
 preserveAspectRatio="xMidYMid meet">
<metadata>
Created by potrace 1.14, written by Peter Selinger 2001-2017
</metadata>
<g transform="translate(0.000000,231.000000) scale(0.100000,-0.100000)"
fill="#000000" stroke="none">
<path d="M978 2255 c-363 -59 -669 -286 -829 -615 -79 -163 -110 -299 -110
-480 0 -150 12 -235 52 -354 130 -389 442 -667 844 -751 98 -21 302 -24 405
-6 468 81 839 455 915 922 85 528 -214 1042 -718 1229 -161 60 -392 83 -559
55z m364 -171 c472 -89 808 -543 758 -1027 -16 -157 -49 -260 -124 -387 -130
-220 -324 -367 -582 -442 -69 -20 -101 -23 -244 -22 -194 1 -269 17 -417 90
-253 125 -427 339 -505 622 -29 104 -31 353 -5 452 52 190 122 316 246 443
228 236 543 334 873 271z"/>
<path d="M854 1855 c-17 -7 -44 -30 -60 -51 -26 -33 -29 -47 -32 -118 -5 -133
52 -257 146 -317 67 -42 113 -40 162 9 64 63 74 174 28 299 -47 129 -163 213
-244 178z"/>
<path d="M1387 1856 c-84 -30 -152 -116 -182 -231 -27 -107 -13 -185 45 -246
49 -52 96 -54 166 -6 91 61 144 171 144 297 0 133 -79 219 -173 186z"/>
<path d="M534 1481 c-49 -30 -68 -82 -68 -181 0 -74 4 -94 30 -151 54 -115
119 -169 202 -169 186 0 168 384 -23 495 -50 30 -99 32 -141 6z"/>
<path d="M1642 1483 c-41 -20 -104 -91 -130 -147 -27 -55 -45 -160 -37 -205
10 -58 45 -120 76 -136 36 -19 92 -19 128 -1 72 37 143 153 162 264 21 121
-43 242 -127 242 -22 0 -54 -8 -72 -17z"/>
<path d="M1115 1272 c-42 -66 -125 -160 -258 -293 -134 -134 -172 -198 -171
-289 1 -56 29 -137 62 -174 9 -10 37 -32 61 -48 39 -24 55 -28 120 -28 86 0
138 20 189 73 l32 33 42 -39 c55 -53 94 -67 180 -67 89 0 145 25 187 82 69 93
79 214 26 304 -15 26 -90 112 -167 191 -76 80 -167 181 -200 224 -34 44 -64
79 -67 79 -3 0 -19 -21 -36 -48z m-150 -672 c0 -8 -8 -16 -17 -18 -13 -2 -18
3 -18 18 0 15 5 20 18 18 9 -2 17 -10 17 -18z m410 0 c0 -8 -8 -16 -17 -18
-13 -2 -18 3 -18 18 0 15 5 20 18 18 9 -2 17 -10 17 -18z m-465 -24 c0 -8 -5
-18 -11 -22 -14 -8 -33 11 -25 25 10 16 36 13 36 -3z m100 -6 c0 -11 -7 -20
-15 -20 -8 0 -15 9 -15 20 0 11 7 20 15 20 8 0 15 -9 15 -20z m310 6 c0 -21
-21 -31 -30 -15 -5 7 -6 17 -4 21 9 14 34 9 34 -6z m105 -7 c0 -7 -8 -15 -17
-17 -18 -3 -25 18 -11 32 10 10 28 1 28 -15z m-465 -25 c0 -14 -21 -19 -33 -7
-9 9 13 34 24 27 5 -3 9 -12 9 -20z m410 0 c0 -8 -7 -14 -15 -14 -15 0 -21 21
-9 33 10 9 24 -2 24 -19z"/>
</g>
</svg>
