<svg width="50" height="50" viewBox="0 0 50 50" fill="none" xmlns="http://www.w3.org/2000/svg">
<path d="M25 0C11.1914 0 0 11.1914 0 25C0 38.8086 11.1914 50 25 50C38.8086 50 50 38.8086 50 25C50 11.1914 38.8086 0 25 0ZM35.0195 27.207L24.082 38.1445C22.8613 39.3652 20.8838 39.3652 19.6631 38.1445C18.4424 36.9238 18.4424 34.9463 19.6631 33.7256L28.3984 25L19.668 16.2695C18.4473 15.0488 18.4473 13.0713 19.668 11.8506C20.8887 10.6299 22.8662 10.6299 24.0869 11.8506L35.0244 22.7881C35.6348 23.3984 35.9375 24.1992 35.9375 25C35.9375 25.8008 35.6348 26.6016 35.0195 27.207Z" fill="url(#paint0_linear_767_5054)"/>
<defs>
<linearGradient id="paint0_linear_767_5054" x1="39.1833" y1="25.7562" x2="2.82732" y2="36.013" gradientUnits="userSpaceOnUse">
<stop stop-color="#FFB700"/>
<stop offset="1" stop-color="#FF7B00"/>
</linearGradient>
</defs>
</svg>
