<svg width="50" height="50" viewBox="0 0 50 50" fill="none" xmlns="http://www.w3.org/2000/svg">
<path d="M25 0C11.1914 0 0 11.1914 0 25C0 38.8086 11.1914 50 25 50C38.8086 50 50 38.8086 50 25C50 11.1914 38.8086 0 25 0ZM30.332 33.7305C31.5527 34.9512 31.5527 36.9287 30.332 38.1494C29.1113 39.3701 27.1338 39.3701 25.9131 38.1494L14.9756 27.2119C14.3652 26.6016 14.0625 25.8008 14.0625 25C14.0625 24.1992 14.3677 23.4004 14.978 22.791L25.9155 11.8535C27.1362 10.6328 29.1138 10.6328 30.3345 11.8535C31.5552 13.0742 31.5552 15.0518 30.3345 16.2725L21.6113 25L30.332 33.7305Z" fill="url(#paint0_linear_756_5046)"/>
<defs>
<linearGradient id="paint0_linear_756_5046" x1="39.1833" y1="25.7562" x2="2.82732" y2="36.013" gradientUnits="userSpaceOnUse">
<stop stop-color="#FFB700"/>
<stop offset="1" stop-color="#FF7B00"/>
</linearGradient>
</defs>
</svg>
